<svg width="99" height="40" viewBox="0 0 99 40" fill="none" xmlns="http://www.w3.org/2000/svg">
<rect width="99" height="40" rx="4" fill="#0D75FF"/>
<path d="M24.76 25C24.6427 25 24.552 24.968 24.488 24.904C24.424 24.8293 24.392 24.7387 24.392 24.632V14.168C24.392 14.0613 24.424 13.976 24.488 13.912C24.552 13.8373 24.6427 13.8 24.76 13.8H25.608C25.7147 13.8 25.8 13.8373 25.864 13.912C25.928 13.976 25.96 14.0613 25.96 14.168V23.608H31.288C31.4053 23.608 31.496 23.6453 31.56 23.72C31.624 23.784 31.656 23.8747 31.656 23.992V24.632C31.656 24.7387 31.624 24.8293 31.56 24.904C31.496 24.968 31.4053 25 31.288 25H24.76ZM36.4358 25.16C35.6251 25.16 34.9478 25.0053 34.4038 24.696C33.8598 24.3867 33.4438 23.96 33.1558 23.416C32.8678 22.8613 32.7078 22.232 32.6758 21.528C32.6651 21.3467 32.6598 21.1173 32.6598 20.84C32.6598 20.552 32.6651 20.3227 32.6758 20.152C32.7078 19.4373 32.8678 18.808 33.1558 18.264C33.4544 17.72 33.8758 17.2933 34.4198 16.984C34.9638 16.6747 35.6358 16.52 36.4358 16.52C37.2358 16.52 37.9078 16.6747 38.4518 16.984C38.9958 17.2933 39.4118 17.72 39.6998 18.264C39.9984 18.808 40.1638 19.4373 40.1958 20.152C40.2064 20.3227 40.2118 20.552 40.2118 20.84C40.2118 21.1173 40.2064 21.3467 40.1958 21.528C40.1638 22.232 40.0038 22.8613 39.7158 23.416C39.4278 23.96 39.0118 24.3867 38.4678 24.696C37.9238 25.0053 37.2464 25.16 36.4358 25.16ZM36.4358 23.928C37.0971 23.928 37.6251 23.72 38.0198 23.304C38.4144 22.8773 38.6278 22.2587 38.6598 21.448C38.6704 21.288 38.6758 21.0853 38.6758 20.84C38.6758 20.5947 38.6704 20.392 38.6598 20.232C38.6278 19.4213 38.4144 18.808 38.0198 18.392C37.6251 17.9653 37.0971 17.752 36.4358 17.752C35.7744 17.752 35.2411 17.9653 34.8358 18.392C34.4411 18.808 34.2331 19.4213 34.2118 20.232C34.2011 20.392 34.1957 20.5947 34.1957 20.84C34.1957 21.0853 34.2011 21.288 34.2118 21.448C34.2331 22.2587 34.4411 22.8773 34.8358 23.304C35.2411 23.72 35.7744 23.928 36.4358 23.928ZM45.6233 28.52C44.8979 28.52 44.3006 28.424 43.8313 28.232C43.3726 28.04 43.0099 27.8053 42.7433 27.528C42.4873 27.2613 42.3006 26.9893 42.1833 26.712C42.0766 26.4453 42.0179 26.232 42.0073 26.072C41.9966 25.9653 42.0286 25.8747 42.1033 25.8C42.1886 25.7253 42.2793 25.688 42.3753 25.688H43.1432C43.2393 25.688 43.3193 25.7093 43.3832 25.752C43.4473 25.7947 43.5006 25.8853 43.5433 26.024C43.6073 26.184 43.7033 26.36 43.8313 26.552C43.9593 26.7547 44.1566 26.9253 44.4233 27.064C44.6899 27.2133 45.0633 27.288 45.5433 27.288C46.0446 27.288 46.4659 27.2187 46.8073 27.08C47.1486 26.952 47.4046 26.7173 47.5753 26.376C47.7566 26.0453 47.8473 25.5867 47.8473 25V23.912C47.5913 24.2427 47.2553 24.52 46.8393 24.744C46.4233 24.9573 45.9006 25.064 45.2713 25.064C44.6739 25.064 44.1619 24.9627 43.7353 24.76C43.3086 24.5467 42.9566 24.264 42.6793 23.912C42.4126 23.5493 42.2099 23.1387 42.0713 22.68C41.9433 22.2213 41.8686 21.7413 41.8473 21.24C41.8366 20.9413 41.8366 20.648 41.8473 20.36C41.8686 19.8587 41.9433 19.3787 42.0713 18.92C42.2099 18.4613 42.4126 18.0507 42.6793 17.688C42.9566 17.3253 43.3086 17.0427 43.7353 16.84C44.1619 16.6267 44.6739 16.52 45.2713 16.52C45.9113 16.52 46.4393 16.6427 46.8553 16.888C47.2819 17.1227 47.6286 17.4107 47.8953 17.752V17.064C47.8953 16.9573 47.9273 16.8667 47.9913 16.792C48.0659 16.7173 48.1566 16.68 48.2633 16.68H48.9993C49.1059 16.68 49.1966 16.7173 49.2713 16.792C49.3459 16.8667 49.3833 16.9573 49.3833 17.064V24.824C49.3833 25.5387 49.2606 26.1733 49.0153 26.728C48.7806 27.2827 48.3859 27.72 47.8313 28.04C47.2873 28.36 46.5513 28.52 45.6233 28.52ZM45.5913 23.784C46.1246 23.784 46.5513 23.6613 46.8713 23.416C47.2019 23.1707 47.4419 22.8613 47.5913 22.488C47.7513 22.1147 47.8366 21.736 47.8473 21.352C47.8579 21.2027 47.8633 21.0213 47.8633 20.808C47.8633 20.584 47.8579 20.3973 47.8473 20.248C47.8366 19.864 47.7513 19.4853 47.5913 19.112C47.4419 18.7387 47.2019 18.4293 46.8713 18.184C46.5513 17.9387 46.1246 17.816 45.5913 17.816C45.0579 17.816 44.6313 17.9387 44.3113 18.184C43.9913 18.4187 43.7619 18.7333 43.6233 19.128C43.4846 19.512 43.4046 19.928 43.3832 20.376C43.3726 20.6533 43.3726 20.936 43.3832 21.224C43.4046 21.672 43.4846 22.0933 43.6233 22.488C43.7619 22.872 43.9913 23.1867 44.3113 23.432C44.6313 23.6667 45.0579 23.784 45.5913 23.784ZM55.1701 25.16C54.3595 25.16 53.6821 25.0053 53.1381 24.696C52.5941 24.3867 52.1781 23.96 51.8901 23.416C51.6021 22.8613 51.4421 22.232 51.4101 21.528C51.3995 21.3467 51.3941 21.1173 51.3941 20.84C51.3941 20.552 51.3995 20.3227 51.4101 20.152C51.4421 19.4373 51.6021 18.808 51.8901 18.264C52.1888 17.72 52.6101 17.2933 53.1541 16.984C53.6981 16.6747 54.3701 16.52 55.1701 16.52C55.9701 16.52 56.6421 16.6747 57.1861 16.984C57.7301 17.2933 58.1461 17.72 58.4341 18.264C58.7328 18.808 58.8981 19.4373 58.9301 20.152C58.9408 20.3227 58.9461 20.552 58.9461 20.84C58.9461 21.1173 58.9408 21.3467 58.9301 21.528C58.8981 22.232 58.7381 22.8613 58.4501 23.416C58.1621 23.96 57.7461 24.3867 57.2021 24.696C56.6581 25.0053 55.9808 25.16 55.1701 25.16ZM55.1701 23.928C55.8315 23.928 56.3595 23.72 56.7541 23.304C57.1488 22.8773 57.3621 22.2587 57.3941 21.448C57.4048 21.288 57.4101 21.0853 57.4101 20.84C57.4101 20.5947 57.4048 20.392 57.3941 20.232C57.3621 19.4213 57.1488 18.808 56.7541 18.392C56.3595 17.9653 55.8315 17.752 55.1701 17.752C54.5088 17.752 53.9755 17.9653 53.5701 18.392C53.1755 18.808 52.9675 19.4213 52.9461 20.232C52.9355 20.392 52.9301 20.5947 52.9301 20.84C52.9301 21.0853 52.9355 21.288 52.9461 21.448C52.9675 22.2587 53.1755 22.8773 53.5701 23.304C53.9755 23.72 54.5088 23.928 55.1701 23.928ZM64.0536 25.16C63.371 25.16 62.7896 25.0107 62.3096 24.712C61.8403 24.4027 61.483 23.976 61.2376 23.432C60.9923 22.888 60.8696 22.264 60.8696 21.56V17.048C60.8696 16.9413 60.9016 16.856 60.9656 16.792C61.0403 16.7173 61.131 16.68 61.2376 16.68H62.0376C62.1443 16.68 62.2296 16.7173 62.2936 16.792C62.3683 16.856 62.4056 16.9413 62.4056 17.048V21.48C62.4056 23.0693 63.099 23.864 64.4856 23.864C65.147 23.864 65.675 23.656 66.0696 23.24C66.475 22.8133 66.6776 22.2267 66.6776 21.48V17.048C66.6776 16.9413 66.7096 16.856 66.7736 16.792C66.8483 16.7173 66.939 16.68 67.0456 16.68H67.8296C67.947 16.68 68.0376 16.7173 68.1016 16.792C68.1656 16.856 68.1976 16.9413 68.1976 17.048V24.632C68.1976 24.7387 68.1656 24.8293 68.1016 24.904C68.0376 24.968 67.947 25 67.8296 25H67.0936C66.987 25 66.8963 24.968 66.8216 24.904C66.7576 24.8293 66.7256 24.7387 66.7256 24.632V23.928C66.4376 24.3013 66.0856 24.6 65.6696 24.824C65.2643 25.048 64.7256 25.16 64.0536 25.16ZM73.8226 25C73.2253 25 72.74 24.888 72.3666 24.664C71.9933 24.4293 71.7213 24.104 71.5506 23.688C71.38 23.2613 71.2946 22.76 71.2946 22.184V17.96H70.0466C69.94 17.96 69.8493 17.928 69.7746 17.864C69.7106 17.7893 69.6786 17.6987 69.6786 17.592V17.048C69.6786 16.9413 69.7106 16.856 69.7746 16.792C69.8493 16.7173 69.94 16.68 70.0466 16.68H71.2946V14.008C71.2946 13.9013 71.3266 13.816 71.3906 13.752C71.4653 13.6773 71.556 13.64 71.6626 13.64H72.4146C72.5213 13.64 72.6066 13.6773 72.6706 13.752C72.7453 13.816 72.7826 13.9013 72.7826 14.008V16.68H74.7666C74.8733 16.68 74.9586 16.7173 75.0226 16.792C75.0973 16.856 75.1346 16.9413 75.1346 17.048V17.592C75.1346 17.6987 75.0973 17.7893 75.0226 17.864C74.9586 17.928 74.8733 17.96 74.7666 17.96H72.7826V22.072C72.7826 22.5733 72.868 22.968 73.0386 23.256C73.2093 23.544 73.5133 23.688 73.9506 23.688H74.9266C75.0333 23.688 75.1186 23.7253 75.1826 23.8C75.2573 23.864 75.2946 23.9493 75.2946 24.056V24.632C75.2946 24.7387 75.2573 24.8293 75.1826 24.904C75.1186 24.968 75.0333 25 74.9266 25H73.8226Z" fill="white"/>
</svg>
